<svg id="Слой_1" data-name="Слой 1" xmlns="http://www.w3.org/2000/svg" viewBox="0 0 226.377 77.756">
  <defs>
    <style>
      .cls-1 {
        fill: #ff4646;
      }
    </style>
  </defs>
  <title>3f8e6180-7945-4ec1-8e31-daec01bae6b6</title>
  <path class="cls-1" d="M109.4,4.576a1,1,0,0,1,.35-0.42,0.93,0.93,0,0,1,.74-0.16,1.06,1.06,0,0,1,.65.55,2.41,2.41,0,0,1,.11,1.58,7.91,7.91,0,0,1-.59,1.73l-0.1.27c-2.12,4.48-6.67,11.68.61,20.33h-0.14l-0.39-.17c-0.2-.1-0.4-0.2-0.59-0.32a7.8,7.8,0,0,1-.72-0.49,8.25,8.25,0,0,1-.79-0.69,8.61,8.61,0,0,1-.8-0.92,9.16,9.16,0,0,1-.75-1.17,10.17,10.17,0,0,1-.63-1.45,11.91,11.91,0,0,1-.46-1.75,14.7,14.7,0,0,1-.23-2.08,19,19,0,0,1,.06-2.43,25.18,25.18,0,0,1,.41-2.81c0.22-1.09.5-2.16,0.82-3.22,0.38-1.24.81-2.45,1.29-3.65q0.33-.83.69-1.65c0.12-.27.25-0.54,0.36-0.81Z"/>
  <path class="cls-1" d="M93.458,7.816s12.1-9.11,19.08-7.66a0.39,0.39,0,0,1,0,.76c-2.72.42-8.23,1.51-10.19,3.53a17.07,17.07,0,0,1-6.85,3.87Z"/>
  <path class="cls-1" d="M112.838,25.786a18.07,18.07,0,0,0,5.16,2.65,26.55,26.55,0,0,0,7.76,1.21q4.62,0.19,9.24.48,9.24,0.58,18.44,1.54Q171.8,33.586,190,37q7.18,1.35,14.32,2.94c0.16-.67-0.67-1.11-1.33-1.29a264.051,264.051,0,0,0-35.67-6.85c-12.05-1.54-24.17-2.48-36.3-3.26l-9.64-.6a33.1,33.1,0,0,1-8.55-2.17"/>
  <path class="cls-1" d="M71.348,26.1A94,94,0,0,1,60.888,28c-10.55,1.22-27.61,4.68-27.61,4.68S14.1,37,12.718,37.456a3.1,3.1,0,0,0-1.68,1c0.79-.08,28.83-7,57.43-10.11,0.61-.07,1.22-0.15,1.82-0.26"/>
  <path class="cls-1" d="M0.548,50.906s-2.33,16.72,2.62,17c0,0,1.82-.17,2-3.36s2.33-9,2.33-9-0.63,11.78,4,11.6c0,0,2.77.17,4.19-4.82s6.33-18.81,6.37-19-1.71-.57-6.06,10.5-4.63,9.06-4.63,9.06-0.11-7.58-.53-8.46-3.38-7.13-7.36,5.08c0,0,.8-9.63-1.18-9.78A1.64,1.64,0,0,0,.548,50.906Z"/>
  <path class="cls-1" d="M21.428,48.456s-2.33,16.7,2.57,17c0,0,1.82-.17,2-3.36s2.33-9,2.33-9-0.63,11.78,4,11.6c0,0,2.77.17,4.19-4.82s6.33-18.81,6.37-19-1.74-.64-6.07,10.43-4.63,9.06-4.63,9.06-0.11-7.58-.53-8.46-3.38-7.12-7.36,5.09c0,0,.8-9.63-1.18-9.78A1.64,1.64,0,0,0,21.428,48.456Z"/>
  <path class="cls-1" d="M41.888,48.836s-2.33,16.72,2.62,17c0,0,1.82-.17,2-3.36s2.33-9,2.33-9-0.63,11.78,4,11.6c0,0,2.77.17,4.19-4.82s6.33-18.81,6.37-19-1.74-.64-6.07,10.43-4.63,9.06-4.63,9.06-0.11-7.58-.53-8.46-3.38-7.13-7.36,5.08c0,0,.8-9.63-1.18-9.78A1.64,1.64,0,0,0,41.888,48.836Z"/>
  <path class="cls-1" d="M63,66.5s-3.81-2.16-1.37-4.66,8,2.16,6,4.66S63,66.5,63,66.5Z"/>
  <path class="cls-1" d="M78.708,75.676s0.23-14.78,1.37-16.2a25.31,25.31,0,0,0,5.31-1.57,9,9,0,0,1,1.05-.54,31.5,31.5,0,0,1,4.68-1.45c1.64-.31,4.57-1.9,1.65-2.2a66.21,66.21,0,0,0-11.24-.49s3.17-13,8.12-14c0,0,5-.25,2.31,8.34a5.33,5.33,0,0,0,0,1.81c0.17,0.94,3.41-3.64,3.44-4.47s1.2-8.5-6.6-9.6l-0.54-.15c-0.85-.16-5.28,0-12.05,19,0,0-5.8.63-5.46,2.56s3.44,2.22,5,2.3c0,0-1.54,16.1.57,18.74A4.33,4.33,0,0,0,78.708,75.676Z"/>
  <path class="cls-1" d="M97.858,54.476s-3.42-.89-5.6,8.07a7.4,7.4,0,0,0,.48,4.93c0.94,2,2.82,3.55,6.49.14a9,9,0,0,0,1.77-2.46s-1.49.23-2.58,0.29a0.76,0.76,0,0,1-.79-0.87A29.17,29.17,0,0,1,99,58.646a4.41,4.41,0,0,0,.48-2A2,2,0,0,0,97.858,54.476Z"/>
  <path class="cls-1" d="M98.188,47.806a1.66,1.66,0,0,0-.48,2,2.32,2.32,0,0,0,1.79,1.35c0.74,0.12,1.57-.13,1.54-1.83a2.19,2.19,0,0,0-.54-1.44A1.65,1.65,0,0,0,98.188,47.806Z"/>
  <path class="cls-1" d="M106.2,51.7a2.39,2.39,0,0,0-.61,1.07c-0.68,2.49-3.41,12.49-3.41,13.09s2.2,2.23,3,1.76,2.24-4.73,2.39-5.27,2.69-9,4.82-7.89c1.5,0.77,1.18,2.55.87,3.52a9.45,9.45,0,0,0-.43,2.23c-0.23,3.16-.09,10,5.4,9.82,0,0-1.59-3.72-1.59-5.23s1.43-7.94,1.59-9.33c0.18-1.56.22-5.26-3.34-5.41a5,5,0,0,0-1.35.15c-1,.23-2.95.81-3.62,1.81A2.24,2.24,0,0,0,106.2,51.7Z"/>
  <path class="cls-1" d="M121.488,61.546s-3.07,2.22,2.16,5.35c0,0,4.42,2.55,3.72-2a5,5,0,0,0-1-2.3C125.5,61.476,123.8,60.056,121.488,61.546Z"/>
  <path class="cls-1" d="M143,42.886s-1.48-.8-4.95,6.88c0,0-7.05,1.42-7.4,3.36s4.32,2.5,5.23,2.1c0,0-4.72,12.74,1.37,13.2,0,0,3.81,1.65,5.35-3.81a6.821,6.821,0,0,0-1.39.34c-0.28.17-2,.51-1.56-1.71s0.37-4.84,2.87-8.85c0,0,11-3,11.49-3.87s-8.76-1.08-9.3-1.39C144.748,49.156,146.6,43.686,143,42.886Z"/>
  <path class="cls-1" d="M153.228,52.276s-4.36,11.23-3.79,15c0,0,1.06,3.6,3.11,1.14,0,0,.68-6.14,2-8.57,0,0,1.29-3.94,5.08-3.6,0,0,4.13,1.59,4-.45a3.66,3.66,0,0,0-3.53-3.15,8.39,8.39,0,0,0-4.13.87s0.27-2.29-1.21-2.22C154.788,51.266,154.118,51.1,153.228,52.276Z"/>
  <path class="cls-1" d="M178,63.316c2.2-6.83,4.1-9.81,1.71-10.85a1.93,1.93,0,0,0-2.18.82,1,1,0,0,1,.19-0.74c0.25-.25,0-1.74-2-1.25s-9.27,5.39-10,6.22-6.9,7.43-1,9.78c0,0,3,2.35,9.18-5.69,0,0-2,13.12,5.1,9C179,70.556,175.758,70.156,178,63.316Zm-10.86-.16c-2-3.15,9.7-10.44,9.78-9.27S167.138,63.156,167.138,63.156Z"/>
  <path class="cls-1" d="M185,48s-5,9.67.34,19.34c0,0,2.62,2.56,5.75-2.73s6.51-16.41,7-16.61a0.54,0.54,0,0,0-.757-0.1l0,0h0a39.51,39.51,0,0,0-7,11c-2,5.4-2.59,4.58-2.59,4.58a18.28,18.28,0,0,1-.23-8.45c1-4.72-.17-7.29-1.22-7.3A1.7,1.7,0,0,0,185,48Z"/>
  <path class="cls-1" d="M212.658,65.156c-13.61,3.11-13-2-13-2a5.75,5.75,0,0,0,2.57-.67s7.11-2.7,8.68-8.33S204,53.3,204,53.3c-9.44,5.15-8.25,10.18-8.25,10.18,1.54,7.82,12.88,4.61,15.5,3.21S212.658,65.156,212.658,65.156Zm-4.42-10.87s-2.59,5.18-8.16,5.46c0,0,4.6-5.42,8.16-5.48h0v0.02Z"/>
  <path class="cls-1" d="M222.738,32.426S208.368,55.616,216.1,66c0,0,3.79,6.09,7.05,1.91a1.85,1.85,0,0,0-.72-0.39c-0.25,0-4.21.38-4.82-5.57S220,47.416,220,47.416s5.72-12,5.69-12.2,2-4.78-.77-5.18C224.908,30,223.878,30,222.738,32.426Z"/>
  <path class="cls-1" d="M3.168,43.516c0.79,0,29.38-8.37,58.14-9a13,13,0,0,0,1.83-.17c1.92-.32,5.71-1.13,7.37-2.79,2.28-2.28,21-23.21,31.74-22.87,0,0,.74.37-1.31,4.15-1.94,3.58-6.07,13.92,3.27,20.72a12.27,12.27,0,0,0,3.72,1.82,20.38,20.38,0,0,0,5.37.8c0.69,0,1.43.07,1.94,0.09,7.48,0.27,58.61,2.3,81.56,8.62,0,0,.11-0.85-1.31-1.37s-28.1-6.71-36.29-7.28c0,0-36.54-3.72-46.43-3.72a9.34,9.34,0,0,1-3.12-.34c-5.6-1.15-11.48-8-3.07-23.48,0,0,3.17-6.43-6.41-3.76a28.27,28.27,0,0,0-8.41,4,165.111,165.111,0,0,0-13.52,10c-2.8,2.57-6.24,6.06-8.41,8.22A14.45,14.45,0,0,1,63.408,31a41.48,41.48,0,0,1-9.61,1.35c-10.62.38-27.93,4-27.93,4s-19.52,4.81-20.94,5.52A3.35,3.35,0,0,0,3.168,43.516Z"/>
</svg>
