<?xml version="1.0" encoding="UTF-8" standalone="no"?>
<svg width="437px" height="113px" viewBox="0 0 437 113" version="1.1" xmlns="http://www.w3.org/2000/svg" xmlns:xlink="http://www.w3.org/1999/xlink">
    <!-- Generator: Sketch 39.1 (31720) - http://www.bohemiancoding.com/sketch -->
    <title>Vector Smart Object</title>
    <desc>Created with Sketch.</desc>
    <defs></defs>
    <g id="Page-1" stroke="none" stroke-width="1" fill="none" fill-rule="evenodd">
        <g id="Vector-Smart-Object" fill="#FFFFFF">
            <path d="M0.484,49.221 L0.484,45.276 L0.484,15.476 L0.484,10.678 L0.484,0.66 L1.307,0.66 L6.086,0.66 L12.696,0.66 L12.696,0.66 L12.696,0.664 L12.699,0.664 C12.7,3.509 13.853,6.085 15.716,7.948 L15.716,7.952 C17.578,9.814 20.153,10.966 23,10.968 L23,10.972 L23.005,10.972 L23.007,10.972 L23.007,10.968 C25.854,10.967 28.431,9.812 30.295,7.946 C32.157,6.084 33.308,3.51 33.31,0.667 L33.312,0.667 L33.312,0.661 L33.312,0.661 L39.936,0.661 L45.539,0.661 L45.539,10.679 L45.539,15.477 L45.539,49.829 C45.539,65.436 55.67,80.293 69.488,87.121 C77.946,91.3 87.917,92.597 97.701,90.362 C101.996,89.382 107.886,87.128 113.506,83.089 C102.7,100.457 83.436,112.087 61.593,112.087 C27.979,112.087 0.483,84.583 0.483,50.986 L0.483,49.221 L0.484,49.221 Z" id="Shape"></path>
            <path d="M122.88,45.276 L122.88,45.276 L122.88,42.955 L122.88,39.589 L122.88,15.475 L122.88,10.677 L122.88,0.66 L122.88,0.66 L117.278,0.66 L110.654,0.66 L110.654,0.66 L110.654,0.666 L110.652,0.666 C110.65,3.509 109.499,6.083 107.637,7.945 C105.773,9.811 103.196,10.966 100.348,10.967 L100.348,10.971 L100.346,10.971 L100.341,10.971 L100.341,10.967 C97.494,10.966 94.918,9.813 93.056,7.951 L93.056,7.947 C91.194,6.084 90.041,3.508 90.04,0.663 L90.037,0.663 L90.037,0.659 L90.037,0.659 L83.426,0.659 L78.647,0.659 L77.825,0.659 L77.825,10.677 L77.824,10.677 L77.824,39.589 L77.824,51.747 L77.775,51.747 L77.775,53.249 C77.775,58.671 75.06,63.493 70.922,66.416 C68.284,68.28 65.706,69.208 62.481,69.401 C68.759,79.873 82.974,83.823 94.369,81.65 C100.117,80.552 105.021,78.283 109.136,75.219 C117.935,68.669 122.88,58.155 122.88,45.276" id="Shape"></path>
            <path d="M308.928,82.872 C307.682,80.58 306.95,77.746 306.95,74.29 L306.95,71.402 L306.95,66.485 L306.953,66.485 L306.95,53.303 L298.712,53.303 L298.712,41.291 L306.948,41.291 L306.948,25.555 L320.806,21.603 L320.806,22.76 L320.806,41.289 L335.208,41.289 L335.993,41.289 L335.993,42.076 L335.993,52.52 L335.993,53.307 L335.208,53.307 L320.806,53.307 L320.808,66.404 L320.805,66.404 L320.805,71.403 L320.808,71.403 C320.808,72.939 321.12,74.17 321.657,75.142 C322.306,76.321 323.299,77.134 324.47,77.654 C325.681,78.191 327.097,78.423 328.542,78.423 C330.96,78.423 333.419,77.773 335.135,76.826 L336.299,76.183 L336.299,77.513 L336.299,87.788 L336.299,88.253 L335.888,88.478 C333.084,90.001 329.061,90.984 324.921,90.984 L324.921,90.981 C321.822,90.981 318.645,90.435 315.843,89.163 C313,87.872 310.54,85.837 308.928,82.872" id="Shape"></path>
            <polygon id="Shape" points="347.917 40.98 357.663 40.98 358.285 40.98 359.68 40.98 359.68 42.266 359.68 42.841 359.68 88.487 359.68 89.062 359.68 90.348 358.285 90.348 357.663 90.348 347.917 90.348 347.296 90.348 345.9 90.348 345.9 89.062 345.9 88.487 345.9 42.841 345.9 42.266 345.9 40.98 347.296 40.98"></polygon>
            <polygon id="Shape" points="423.583 40.98 433.328 40.98 433.328 40.985 433.95 40.985 435.346 40.984 435.346 42.265 435.346 42.841 435.346 88.487 435.346 89.062 435.346 90.342 433.95 90.342 433.328 90.343 433.328 90.348 423.583 90.348 423.583 90.343 422.961 90.342 421.566 90.342 421.566 89.062 421.566 88.487 421.566 42.841 421.566 42.265 421.566 40.984 422.961 40.985 423.583 40.985"></polygon>
            <polygon id="Shape" points="414.191 43.014 397.386 64.5 415.831 88.319 417.397 90.342 414.697 90.342 401.622 90.342 400.882 90.342 400.467 89.775 389.13 74.259 386.134 70.158 384.855 68.41 384.855 88.487 384.855 89.062 384.855 90.348 383.461 90.348 382.837 90.348 373.09 90.348 372.466 90.348 371.07 90.348 371.07 89.062 371.07 88.487 371.076 88.487 371.076 42.266 371.076 40.98 372.466 40.98 383.461 40.98 384.855 40.98 384.855 42.266 384.855 61.666 386.13 59.923 399.564 41.548 399.979 40.98 400.72 40.98 405.333 40.98 405.333 40.985 413.063 40.985 415.778 40.985"></polygon>
            <polygon id="Shape" points="280.132 40.98 289.875 40.98 290.496 40.98 291.892 40.98 291.892 42.266 291.892 42.841 291.892 88.487 291.892 89.062 291.892 90.348 290.496 90.348 289.875 90.348 280.132 90.348 279.511 90.348 278.115 90.348 278.115 89.062 278.115 88.487 278.115 42.841 278.115 42.266 278.115 40.98 279.511 40.98"></polygon>
            <path d="M153.44,56.936 L153.44,62.221 L153.441,62.221 L153.441,62.478 L153.441,62.996 L153.44,62.996 C153.44,63.713 153.463,64.424 153.505,65.128 C153.513,65.268 153.524,65.419 153.536,65.584 L153.536,65.585 C153.546,65.723 153.558,65.875 153.572,66.038 C153.606,66.426 153.646,66.811 153.692,67.191 L153.694,67.204 L153.715,67.378 L153.714,67.378 L153.736,67.547 C153.772,67.826 153.812,68.094 153.853,68.349 C153.883,68.537 153.915,68.719 153.946,68.898 C153.974,69.055 154.012,69.252 154.057,69.48 L154.057,69.48 L154.058,69.488 C154.089,69.642 154.119,69.784 154.145,69.912 C154.177,70.063 154.208,70.204 154.237,70.33 C154.399,71.04 154.585,71.731 154.79,72.399 L154.791,72.399 L154.792,72.404 L154.792,72.406 C154.833,72.539 154.877,72.677 154.923,72.818 C154.962,72.937 155.007,73.072 155.06,73.226 C155.3,73.925 155.565,74.602 155.851,75.258 L155.851,75.258 L155.967,75.522 L155.967,75.522 L156.091,75.793 L156.091,75.793 L156.206,76.038 L156.206,76.037 L156.341,76.315 L156.41,76.457 C156.704,77.05 157.016,77.624 157.348,78.18 L157.348,78.18 C157.705,78.78 158.082,79.359 158.477,79.915 C160.517,82.788 163.078,85.136 165.965,86.957 L166.013,86.987 C167.506,87.924 169.09,88.722 170.736,89.382 C172.38,90.04 174.089,90.562 175.836,90.944 C184.8,92.904 194.715,91.193 202.023,85.801 L202.024,85.8 L202.024,85.8 L202.093,85.749 L202.162,85.697 L202.162,85.697 L202.516,85.429 L202.516,85.43 L202.754,85.242 L202.754,85.242 L202.993,85.051 L202.996,85.048 L203.004,85.041 L203.007,85.039 L203.007,85.039 C203.346,84.764 203.683,84.476 204.017,84.176 C204.352,83.876 204.677,83.569 204.99,83.257 C206.619,81.638 208.054,79.785 209.236,77.703 L209.237,77.701 L209.237,77.7 L209.371,77.462 L209.371,77.462 L209.5,77.225 L209.5,77.225 C209.721,76.816 209.933,76.396 210.135,75.967 L210.138,75.96 L210.14,75.956 C210.381,75.444 210.609,74.917 210.823,74.375 C211.038,73.831 211.236,73.277 211.416,72.718 C212.33,69.879 212.844,66.722 212.869,63.247 L212.867,63.247 L212.867,62.99 L212.867,62.984 L212.867,62.882 L212.861,62.882 L212.861,62.625 L212.861,62.107 L212.86,62.107 L212.86,56.935 L212.86,56.831 L212.849,56.831 L212.849,56.574 L212.849,56.056 L212.849,55.289 L212.849,54.771 L212.849,54.514 L212.853,54.514 L212.853,54.437 L212.853,54.391 L212.853,54.366 L212.827,54.359 L212.827,54.163 L212.827,53.976 L212.825,53.976 L212.825,53.719 L212.825,53.201 L212.825,22.069 L212.825,21.966 L212.822,21.966 L212.822,21.709 L212.822,21.191 L212.822,20.942 L212.822,20.84 L212.719,20.84 L212.365,20.84 L212.365,20.843 L212.108,20.843 L211.59,20.843 L198.189,20.843 L197.672,20.843 L197.415,20.843 L197.415,20.838 L197.314,20.838 L197.314,20.84 L197.057,20.84 L196.955,20.84 L196.955,20.942 L196.955,21.199 L196.954,21.199 L196.954,21.209 L196.954,22.069 L196.954,22.326 L196.953,22.326 L196.953,58.563 C196.953,58.937 196.95,59.335 196.942,59.769 C196.935,60.166 196.923,60.55 196.906,60.916 L196.906,60.917 C196.888,61.294 196.864,61.658 196.835,62.003 C196.807,62.341 196.77,62.689 196.725,63.044 L196.725,63.058 L196.723,63.075 L196.717,63.123 L196.716,63.124 C196.67,63.484 196.615,63.843 196.55,64.199 C196.485,64.557 196.41,64.912 196.325,65.264 L196.325,65.265 C196.24,65.619 196.141,65.975 196.032,66.335 C195.956,66.583 195.876,66.83 195.792,67.073 L195.814,67.073 L195.664,67.429 L195.661,67.438 L195.66,67.438 L195.631,67.515 L195.63,67.518 L195.598,67.601 C195.545,67.739 195.491,67.872 195.436,68.001 L195.436,68.001 L195.416,68.046 L195.415,68.049 L195.414,68.053 L195.413,68.055 L195.378,68.136 L195.378,68.137 L195.342,68.219 L195.341,68.22 C195.276,68.367 195.208,68.513 195.139,68.656 L195.137,68.659 L195.135,68.662 L195.081,68.772 L195.08,68.775 L195.023,68.888 L195.022,68.889 C194.93,69.069 194.834,69.246 194.737,69.417 L194.737,69.422 L194.701,69.483 L194.615,69.629 L194.603,69.65 L194.6,69.654 L194.524,69.78 L194.513,69.8 L194.509,69.805 C194.396,69.989 194.28,70.167 194.161,70.341 C194.044,70.512 193.917,70.687 193.784,70.863 C193.117,71.74 192.357,72.507 191.531,73.157 L191.284,73.351 L191.282,73.346 C191.132,73.459 190.984,73.565 190.844,73.661 L190.843,73.662 C190.744,73.73 190.635,73.802 190.519,73.876 C190.42,73.939 190.325,73.999 190.233,74.055 L190.228,74.062 L190.185,74.087 L190.123,74.122 L190.122,74.124 L190.121,74.125 L189.57,74.456 L189.287,74.627 L189.275,74.588 L189.218,74.616 L188.848,74.8 L188.848,74.79 C188.762,74.83 188.677,74.867 188.595,74.902 L188.594,74.903 L188.54,74.925 L188.415,74.978 L188.415,74.977 L188.411,74.979 L188.407,74.981 L188.291,75.028 L188.285,75.031 L188.234,75.054 L188.226,75.054 C188.141,75.087 188.059,75.117 187.979,75.148 L187.978,75.149 C187.876,75.186 187.779,75.222 187.69,75.253 L187.69,75.252 C187.195,75.423 186.691,75.565 186.183,75.678 L186.181,75.679 L185.964,75.725 L185.961,75.726 L185.767,75.765 L185.764,75.765 L185.717,75.774 L185.717,75.774 C185.614,75.793 185.517,75.81 185.429,75.825 C185.335,75.841 185.238,75.855 185.139,75.869 C184.736,75.927 184.328,75.966 183.918,75.988 L183.918,76.014 L183.661,76.014 L183.143,76.014 L183.143,76.013 C182.923,76.013 182.706,76.007 182.495,75.996 C182.376,75.991 182.265,75.984 182.163,75.976 C182.061,75.969 181.951,75.959 181.832,75.948 C181.407,75.908 180.983,75.848 180.564,75.768 L180.563,75.768 C180.476,75.752 180.395,75.736 180.322,75.721 L180.321,75.721 L180.093,75.671 L180.092,75.671 L180.074,75.666 L180.066,75.665 L180.061,75.663 L180.054,75.662 L179.987,75.646 L179.985,75.646 L179.918,75.629 L179.917,75.629 L179.693,75.573 L179.692,75.575 L179.625,75.556 L179.623,75.555 L179.605,75.55 L179.6,75.549 L179.598,75.548 L179.569,75.54 L179.568,75.539 L179.562,75.538 L179.536,75.53 L179.535,75.53 L179.414,75.497 L179.412,75.497 L179.271,75.456 L179.252,75.451 L179.242,75.446 L179.024,75.379 L179.014,75.379 L178.976,75.367 L178.971,75.365 L178.971,75.364 C178.846,75.325 178.745,75.292 178.68,75.269 L178.68,75.269 C178.58,75.235 178.485,75.201 178.392,75.166 C177.92,74.993 177.454,74.792 176.999,74.563 L176.997,74.563 L176.94,74.534 L176.756,74.439 L176.752,74.437 L176.564,74.334 L176.561,74.332 L176.383,74.233 L176.379,74.231 L176.204,74.129 L175.943,74.007 L175.795,73.938 L175.795,73.875 L175.716,73.824 L175.712,73.822 L175.576,73.731 L175.573,73.731 L175.507,73.686 L175.403,73.615 L175.394,73.61 L175.379,73.6 L175.262,73.518 L175.252,73.509 L175.232,73.494 L175.226,73.488 L175.223,73.486 C175.12,73.412 175.02,73.34 174.93,73.269 L174.931,73.269 C174.822,73.186 174.721,73.106 174.626,73.028 L174.624,73.027 L174.624,73.027 L174.567,72.981 L174.563,72.985 L174.382,72.826 L174.382,72.826 L174.382,72.826 C174.237,72.702 174.093,72.573 173.952,72.441 C173.813,72.31 173.674,72.174 173.538,72.034 C173.038,71.521 172.576,70.958 172.155,70.344 L172.155,70.345 L172.14,70.322 C171.983,70.092 171.832,69.854 171.687,69.61 L171.682,69.602 L171.68,69.599 L171.674,69.591 L171.615,69.491 L171.614,69.488 L171.556,69.386 C171.454,69.206 171.357,69.025 171.264,68.843 L171.262,68.839 L171.262,68.838 L171.262,68.837 L171.26,68.832 L171.207,68.726 L171.205,68.724 L171.152,68.616 L171.152,68.615 C171.062,68.429 170.974,68.236 170.891,68.039 L170.89,68.038 L170.887,68.032 C170.728,67.657 170.583,67.282 170.452,66.906 C170.323,66.532 170.206,66.159 170.104,65.785 L170.104,65.785 C170,65.409 169.91,65.035 169.833,64.665 C169.755,64.292 169.689,63.92 169.635,63.551 C169.58,63.179 169.534,62.796 169.496,62.405 C169.458,62.019 169.429,61.629 169.407,61.236 L169.407,61.235 C169.386,60.843 169.371,60.443 169.362,60.036 C169.352,59.603 169.347,59.203 169.347,58.827 L169.347,58.309 L169.347,58.052 L169.351,58.052 L169.351,22.063 L169.352,22.063 L169.352,21.203 L169.352,21.193 L169.351,21.193 L169.351,20.936 L169.351,20.833 L169.248,20.833 L169.248,20.834 L168.116,20.834 L154.71,20.834 L154.71,20.833 L153.583,20.833 L153.583,20.834 L153.48,20.834 L153.48,20.936 L153.48,21.185 L153.48,21.703 L153.48,21.96 L153.477,21.96 L153.477,22.063 L153.477,53.195 L153.477,53.713 L153.477,53.97 L153.474,53.97 L153.474,54.157 L153.474,54.354 L153.448,54.361 L153.448,54.385 L153.448,54.431 L153.448,54.508 L153.451,54.508 L153.451,54.765 L153.451,55.283 L153.451,56.05 L153.451,56.568 L153.451,56.825 L153.44,56.825 L153.44,56.936 L153.44,56.936 Z" id="Shape"></path>
            <path d="M221.974,61.27 L221.974,66.866 L221.979,66.866 L221.979,67.332 L221.979,68.378 L222.002,68.385 L222.002,88.328 L222.002,88.953 L222.002,90.348 L223.398,90.348 L224.019,90.348 L224.019,90.342 L233.763,90.342 L233.763,90.348 L234.387,90.348 L235.783,90.348 L235.783,88.953 L235.783,88.328 L235.783,62.942 L235.783,62.862 L235.786,62.794 L235.787,62.794 L235.798,62.6 C235.817,62.27 235.84,61.965 235.867,61.689 L235.867,61.686 L235.867,61.686 L235.886,61.511 L235.887,61.511 L235.907,61.336 L235.907,61.336 C235.946,61.001 235.985,60.71 236.024,60.462 L236.024,60.457 L236.025,60.457 C236.067,60.19 236.118,59.914 236.178,59.628 C236.233,59.363 236.295,59.099 236.365,58.838 C238.63,50.287 250.774,50.287 253.039,58.838 C253.108,59.099 253.171,59.363 253.226,59.628 C253.287,59.914 253.337,60.19 253.379,60.457 L253.38,60.457 L253.38,60.462 C253.419,60.71 253.458,61.001 253.497,61.336 L253.498,61.336 L253.517,61.511 L253.519,61.511 L253.537,61.686 L253.537,61.686 L253.538,61.689 C253.564,61.965 253.588,62.27 253.607,62.6 L253.618,62.794 L253.618,62.794 L253.621,62.862 L253.621,62.942 L253.621,88.328 L253.621,88.953 L253.621,90.348 L255.017,90.348 L255.641,90.348 L255.641,90.342 L265.385,90.342 L265.385,90.348 L266.006,90.348 L267.402,90.348 L267.402,88.953 L267.402,88.328 L267.402,68.385 L267.425,68.378 L267.425,67.332 L267.425,66.866 L267.43,66.866 L267.43,61.27 C267.427,31.914 221.974,31.914 221.974,61.27" id="Shape"></path>
            <path d="M285.224,35.981 L285.224,35.984 L285.222,35.984 L285.217,35.984 L285.217,35.981 C282.905,35.98 280.812,35.043 279.299,33.531 L279.299,33.527 C277.786,32.014 276.851,29.921 276.849,27.61 L276.846,27.61 L276.846,27.607 L276.846,27.604 L276.849,27.604 C276.851,25.295 277.787,23.201 279.299,21.687 C280.813,20.172 282.907,19.233 285.22,19.232 L285.22,19.228 L285.222,19.228 L285.227,19.228 L285.227,19.232 C287.538,19.232 289.63,20.171 291.144,21.686 C292.657,23.2 293.594,25.294 293.594,27.605 L293.596,27.605 L293.596,27.606 L293.596,27.611 L293.594,27.611 C293.592,29.921 292.657,32.012 291.145,33.525 C289.631,35.042 287.536,35.98 285.224,35.981" id="Shape"></path>
            <path d="M352.793,35.981 L352.793,35.984 L352.791,35.984 L352.787,35.984 L352.787,35.981 C350.474,35.98 348.382,35.043 346.869,33.531 L346.869,33.527 C345.355,32.014 344.42,29.921 344.419,27.61 L344.416,27.61 L344.416,27.607 L344.416,27.604 L344.419,27.604 C344.42,25.295 345.356,23.201 346.868,21.687 C348.382,20.172 350.476,19.233 352.789,19.232 L352.789,19.228 L352.791,19.228 L352.796,19.228 L352.796,19.232 C355.107,19.232 357.199,20.171 358.713,21.686 C360.226,23.2 361.163,25.294 361.163,27.605 L361.166,27.605 L361.166,27.606 L361.166,27.611 L361.163,27.611 C361.162,29.921 360.226,32.012 358.714,33.525 C357.2,35.042 355.105,35.98 352.793,35.981" id="Shape"></path>
            <path d="M428.462,35.981 L428.462,35.984 L428.46,35.984 L428.456,35.984 L428.456,35.981 C426.144,35.98 424.051,35.043 422.538,33.531 L422.538,33.527 C421.025,32.014 420.089,29.921 420.088,27.61 L420.085,27.61 L420.085,27.607 L420.085,27.604 L420.088,27.604 C420.089,25.295 421.026,23.201 422.537,21.687 C424.051,20.172 426.145,19.233 428.458,19.232 L428.458,19.228 L428.46,19.228 L428.465,19.228 L428.465,19.232 C430.776,19.232 432.868,20.171 434.382,21.686 C435.896,23.2 436.832,25.294 436.832,27.605 L436.835,27.605 L436.835,27.606 L436.835,27.611 L436.832,27.611 C436.831,29.921 435.895,32.012 434.383,33.525 C432.869,35.042 430.775,35.98 428.462,35.981" id="Shape"></path>
            <polygon id="Shape" points="373.093 20.585 382.839 20.585 383.461 20.585 384.855 20.585 384.855 22.143 384.855 22.841 384.855 78.191 384.855 78.889 384.855 80.447 383.461 80.447 382.839 80.447 373.093 80.447 372.472 80.447 371.076 80.447 371.076 78.889 371.076 78.191 371.076 22.841 371.076 22.143 371.076 20.585 372.472 20.585"></polygon>
            <polygon id="Shape" points="224.02 40.98 233.762 40.98 234.384 40.98 235.778 40.98 235.778 42.266 235.778 42.841 235.778 88.487 235.778 89.062 235.778 90.348 234.384 90.348 233.762 90.348 224.02 90.348 223.397 90.348 222.002 90.348 222.002 89.062 222.002 88.487 222.002 42.841 222.002 42.266 222.002 40.98 223.397 40.98"></polygon>
        </g>
    </g>
</svg>